<svg width="32" height="32" viewBox="0 0 32 32" fill="none" xmlns="http://www.w3.org/2000/svg">
<rect width="32" height="32" rx="16" fill="url(#paint0_linear_127_13)"/>
<path d="M19.1 13.24C18.78 12.6533 18.34 12.2067 17.78 11.9C17.22 11.5933 16.5667 11.44 15.82 11.44C14.9933 11.44 14.26 11.6267 13.62 12C12.98 12.3733 12.48 12.9067 12.12 13.6C11.76 14.2933 11.58 15.0933 11.58 16C11.58 16.9333 11.76 17.7467 12.12 18.44C12.4933 19.1333 13.0067 19.6667 13.66 20.04C14.3133 20.4133 15.0733 20.6 15.94 20.6C17.0067 20.6 17.88 20.32 18.56 19.76C19.24 19.1867 19.6867 18.3933 19.9 17.38H15.1V15.24H22.66V17.68C22.4733 18.6533 22.0733 19.5533 21.46 20.38C20.8467 21.2067 20.0533 21.8733 19.08 22.38C18.12 22.8733 17.04 23.12 15.84 23.12C14.4933 23.12 13.2733 22.82 12.18 22.22C11.1 21.6067 10.2467 20.76 9.62 19.68C9.00667 18.6 8.7 17.3733 8.7 16C8.7 14.6267 9.00667 13.4 9.62 12.32C10.2467 11.2267 11.1 10.38 12.18 9.78C13.2733 9.16667 14.4867 8.86 15.82 8.86C17.3933 8.86 18.76 9.24667 19.92 10.02C21.08 10.78 21.88 11.8533 22.32 13.24H19.1Z" fill="white"/>
<defs>
<linearGradient id="paint0_linear_127_13" x1="35" y1="-15.5" x2="6.5" y2="28.5" gradientUnits="userSpaceOnUse">
<stop offset="0.111719" stop-color="#062697"/>
<stop offset="0.695087" stop-color="#5B7CEE"/>
</linearGradient>
</defs>
</svg>
