<svg width="177" height="40" viewBox="0 0 177 40" fill="none" xmlns="http://www.w3.org/2000/svg">
<path d="M24.344 15.96C23.736 14.84 22.856 13.992 21.704 13.416C20.584 12.808 19.256 12.504 17.72 12.504C15.064 12.504 12.936 13.384 11.336 15.144C9.736 16.872 8.936 19.192 8.936 22.104C8.936 25.208 9.768 27.64 11.432 29.4C13.128 31.128 15.448 31.992 18.392 31.992C20.408 31.992 22.104 31.48 23.48 30.456C24.888 29.432 25.912 27.96 26.552 26.04H16.136V19.992H33.992V27.624C33.384 29.672 32.344 31.576 30.872 33.336C29.432 35.096 27.592 36.52 25.352 37.608C23.112 38.696 20.584 39.24 17.768 39.24C14.44 39.24 11.464 38.52 8.84 37.08C6.248 35.608 4.216 33.576 2.744 30.984C1.304 28.392 0.584 25.432 0.584 22.104C0.584 18.776 1.304 15.816 2.744 13.224C4.216 10.6 6.248 8.568 8.84 7.128C11.432 5.656 14.392 4.92 17.72 4.92C21.752 4.92 25.144 5.896 27.896 7.848C30.68 9.8 32.52 12.504 33.416 15.96H24.344Z" fill="#141414"/>
<path d="M36.9065 25.56C36.9065 22.808 37.4185 20.392 38.4425 18.312C39.4985 16.232 40.9225 14.632 42.7145 13.512C44.5065 12.392 46.5065 11.832 48.7145 11.832C50.6025 11.832 52.2505 12.216 53.6585 12.984C55.0985 13.752 56.2025 14.76 56.9705 16.008V12.216H65.1785V39H56.9705V35.208C56.1705 36.456 55.0505 37.464 53.6105 38.232C52.2025 39 50.5545 39.384 48.6665 39.384C46.4905 39.384 44.5065 38.824 42.7145 37.704C40.9225 36.552 39.4985 34.936 38.4425 32.856C37.4185 30.744 36.9065 28.312 36.9065 25.56ZM56.9705 25.608C56.9705 23.56 56.3945 21.944 55.2425 20.76C54.1225 19.576 52.7465 18.984 51.1145 18.984C49.4825 18.984 48.0905 19.576 46.9385 20.76C45.8185 21.912 45.2585 23.512 45.2585 25.56C45.2585 27.608 45.8185 29.24 46.9385 30.456C48.0905 31.64 49.4825 32.232 51.1145 32.232C52.7465 32.232 54.1225 31.64 55.2425 30.456C56.3945 29.272 56.9705 27.656 56.9705 25.608Z" fill="#141414"/>
<path d="M79.3246 16.008C80.0926 14.76 81.1966 13.752 82.6366 12.984C84.0766 12.216 85.7246 11.832 87.5806 11.832C89.7886 11.832 91.7886 12.392 93.5806 13.512C95.3726 14.632 96.7806 16.232 97.8046 18.312C98.8606 20.392 99.3886 22.808 99.3886 25.56C99.3886 28.312 98.8606 30.744 97.8046 32.856C96.7806 34.936 95.3726 36.552 93.5806 37.704C91.7886 38.824 89.7886 39.384 87.5806 39.384C85.6926 39.384 84.0446 39.016 82.6366 38.28C81.2286 37.512 80.1246 36.504 79.3246 35.256V39H71.1166V3.48H79.3246V16.008ZM91.0366 25.56C91.0366 23.512 90.4606 21.912 89.3086 20.76C88.1886 19.576 86.7966 18.984 85.1326 18.984C83.5006 18.984 82.1086 19.576 80.9566 20.76C79.8366 21.944 79.2766 23.56 79.2766 25.608C79.2766 27.656 79.8366 29.272 80.9566 30.456C82.1086 31.64 83.5006 32.232 85.1326 32.232C86.7646 32.232 88.1566 31.64 89.3086 30.456C90.4606 29.24 91.0366 27.608 91.0366 25.56Z" fill="#141414"/>
<path d="M111.903 16.68C112.863 15.208 114.063 14.056 115.503 13.224C116.943 12.36 118.543 11.928 120.303 11.928V20.616H118.047C115.999 20.616 114.463 21.064 113.439 21.96C112.415 22.824 111.903 24.36 111.903 26.568V39H103.695V12.216H111.903V16.68Z" fill="#141414"/>
<path d="M128.354 9.432C126.914 9.432 125.73 9.016 124.802 8.184C123.906 7.32 123.458 6.264 123.458 5.016C123.458 3.736 123.906 2.68 124.802 1.848C125.73 0.984002 126.914 0.552002 128.354 0.552002C129.762 0.552002 130.914 0.984002 131.81 1.848C132.738 2.68 133.202 3.736 133.202 5.016C133.202 6.264 132.738 7.32 131.81 8.184C130.914 9.016 129.762 9.432 128.354 9.432ZM132.434 12.216V39H124.226V12.216H132.434Z" fill="#141414"/>
<path d="M163.63 25.176C163.63 25.944 163.582 26.744 163.486 27.576H144.91C145.038 29.24 145.566 30.52 146.494 31.416C147.454 32.28 148.622 32.712 149.998 32.712C152.046 32.712 153.47 31.848 154.27 30.12H163.006C162.558 31.88 161.742 33.464 160.558 34.872C159.406 36.28 157.95 37.384 156.19 38.184C154.43 38.984 152.462 39.384 150.286 39.384C147.662 39.384 145.326 38.824 143.278 37.704C141.23 36.584 139.63 34.984 138.478 32.904C137.326 30.824 136.75 28.392 136.75 25.608C136.75 22.824 137.31 20.392 138.43 18.312C139.582 16.232 141.182 14.632 143.23 13.512C145.278 12.392 147.63 11.832 150.286 11.832C152.878 11.832 155.182 12.376 157.198 13.464C159.214 14.552 160.782 16.104 161.902 18.12C163.054 20.136 163.63 22.488 163.63 25.176ZM155.23 23.016C155.23 21.608 154.75 20.488 153.79 19.656C152.83 18.824 151.63 18.408 150.19 18.408C148.814 18.408 147.646 18.808 146.686 19.608C145.758 20.408 145.182 21.544 144.958 23.016H155.23Z" fill="#141414"/>
<path d="M176.168 3.48V39H167.96V3.48H176.168Z" fill="#141414"/>
</svg>
